<svg aria-hidden="true" style="position: absolute; width: 0; height: 0; overflow: hidden;" version="1.1" xmlns="http://www.w3.org/2000/svg" xmlns:xlink="http://www.w3.org/1999/xlink">
<defs>
<symbol id="icon-eye_closed_icon" viewBox="0 0 32 32">
<path stroke-linejoin="round" stroke-linecap="round" stroke-miterlimit="4" stroke-width="2" d="M25.137 15.912l2.863 4.938"></path>
<path stroke-linejoin="round" stroke-linecap="round" stroke-miterlimit="4" stroke-width="2" d="M19.275 18.663l0.887 5.038"></path>
<path stroke-linejoin="round" stroke-linecap="round" stroke-miterlimit="4" stroke-width="2" d="M12.713 18.65l-0.887 5.050"></path>
<path stroke-linejoin="round" stroke-linecap="round" stroke-miterlimit="4" stroke-width="2" d="M6.85 15.912l-2.862 4.963"></path>
<path stroke-linejoin="round" stroke-linecap="round" stroke-miterlimit="4" stroke-width="2" d="M4 13.113c2.1 2.6 5.95 5.887 12 5.887s9.9-3.287 12-5.887"></path>
</symbol>
<symbol id="icon-people" viewBox="0 0 32 32">
<path d="M16 2.667c-7.36 0-13.333 5.973-13.333 13.333s5.973 13.333 13.333 13.333c7.36 0 13.333-5.973 13.333-13.333s-5.973-13.333-13.333-13.333zM16 4c6.613 0 12 5.387 12 12 0 1.893-0.453 3.68-1.24 5.28-2.040-2.293-5.307-3.853-9.84-4.040 1.234-0.215 2.353-0.858 3.161-1.817s1.251-2.171 1.253-3.423c0-2.947-2.387-5.333-5.333-5.333s-5.333 2.387-5.333 5.333c0 2.627 1.907 4.8 4.413 5.24-4.533 0.187-7.8 1.747-9.84 4.040-0.787-1.6-1.24-3.387-1.24-5.28 0-6.613 5.387-12 12-12zM12 12c0-2.2 1.8-4 4-4s4 1.8 4 4-1.8 4-4 4c-2.2 0-4-1.8-4-4zM16 28c-4.213 0-7.92-2.187-10.067-5.493 2.080-2.6 5.547-3.973 10.067-3.973s7.987 1.373 10.067 3.973c-2.147 3.307-5.853 5.493-10.067 5.493z"></path>
</symbol>
<symbol id="icon-google" viewBox="0 0 32 32">
<path fill="#fbbc05" style="fill: var(--color1, #fbbc05)" d="M6.896 16c0-1.039 0.173-2.036 0.481-2.97l-5.393-4.118c-1.051 2.134-1.643 4.538-1.643 7.088 0 2.548 0.592 4.95 1.641 7.083l5.389-4.126c-0.305-0.93-0.476-1.923-0.476-2.957z"></path>
<path fill="#ea4335" style="fill: var(--color2, #ea4335)" d="M16.364 6.545c2.258 0 4.297 0.8 5.899 2.109l4.661-4.654c-2.84-2.473-6.482-4-10.56-4-6.332 0-11.774 3.621-14.38 8.912l5.392 4.118c1.243-3.771 4.784-6.484 8.988-6.484z"></path>
<path fill="#34a853" style="fill: var(--color3, #34a853)" d="M16.364 25.454c-4.203 0-7.745-2.713-8.987-6.484l-5.393 4.117c2.606 5.292 8.048 8.913 14.38 8.913 3.908 0 7.639-1.388 10.44-3.988l-5.119-3.957c-1.444 0.91-3.263 1.399-5.321 1.399z"></path>
<path fill="#4285f4" style="fill: var(--color4, #4285f4)" d="M31.659 16c0-0.945-0.146-1.964-0.364-2.909h-14.93v6.182h8.594c-0.43 2.108-1.599 3.728-3.273 4.782l5.119 3.957c2.942-2.73 4.855-6.797 4.855-12.012z"></path>
</symbol>
<symbol id="icon-linkedin" viewBox="0 0 32 32">
<path fill="#0a66c2" style="fill: var(--color5, #0a66c2)" d="M0 2.281c0-1.259 1.059-2.281 2.365-2.281h27.27c1.306 0 2.365 1.022 2.365 2.281v27.277c0 1.259-1.059 2.28-2.365 2.28h-27.27c-1.306 0-2.365-1.021-2.365-2.28v-27.278z"></path>
<path fill="#fff" style="fill: var(--color6, #fff)" d="M10.222 26.652v-14.377h-4.833v14.377h4.833zM7.806 10.312c1.685 0 2.734-1.104 2.734-2.484-0.032-1.411-1.049-2.484-2.702-2.484-1.654 0-2.735 1.073-2.735 2.484 0 1.38 1.049 2.484 2.671 2.484h0.032zM12.897 26.652h4.833v-8.028c0-0.429 0.032-0.859 0.159-1.166 0.349-0.859 1.145-1.748 2.48-1.748 1.749 0 2.448 1.318 2.448 3.251v7.69h4.833v-8.243c0-4.416-2.384-6.471-5.564-6.471-2.607 0-3.752 1.441-4.388 2.422h0.032v-2.084h-4.833c0.063 1.349-0 14.377-0 14.377v-0z"></path>
</symbol>
<symbol id="icon-emoji" viewBox="0 0 32 32">
<path d="M16 32c-3.165 0-6.258-0.938-8.889-2.697s-4.682-4.257-5.893-7.18c-1.211-2.924-1.528-6.141-0.91-9.244s2.141-5.955 4.379-8.192c2.238-2.238 5.089-3.761 8.192-4.379s6.321-0.3 9.244 0.91c2.924 1.211 5.422 3.262 7.18 5.893s2.697 5.725 2.697 8.889c-0.005 4.242-1.692 8.309-4.691 11.309s-7.066 4.687-11.309 4.691zM16 2.667c-2.637 0-5.215 0.782-7.408 2.247s-3.902 3.547-4.911 5.984c-1.009 2.436-1.273 5.117-0.759 7.704s1.784 4.962 3.649 6.827 4.24 3.135 6.827 3.649c2.586 0.514 5.267 0.25 7.704-0.759s4.519-2.718 5.984-4.911c1.465-2.193 2.247-4.77 2.247-7.408-0.004-3.535-1.41-6.924-3.91-9.424s-5.889-3.906-9.424-3.91zM10.667 18.667c-0.208-0.001-0.414 0.047-0.6 0.14s-0.348 0.228-0.473 0.394c-0.125 0.167-0.209 0.36-0.246 0.565s-0.025 0.415 0.034 0.615c0.478 1.397 1.366 2.617 2.548 3.5s2.604 1.39 4.079 1.453c1.475-0.058 2.898-0.563 4.081-1.447s2.068-2.107 2.541-3.506c0.053-0.199 0.061-0.408 0.022-0.61s-0.124-0.393-0.247-0.558c-0.124-0.165-0.283-0.3-0.467-0.394s-0.386-0.146-0.592-0.15h-10.68zM8 13.333c0 1.333 1.193 1.333 2.667 1.333s2.667 0 2.667-1.333c0-0.707-0.281-1.386-0.781-1.886s-1.178-0.781-1.886-0.781c-0.707 0-1.386 0.281-1.886 0.781s-0.781 1.178-0.781 1.886zM18.667 13.333c0 1.333 1.193 1.333 2.667 1.333s2.667 0 2.667-1.333c0-0.707-0.281-1.386-0.781-1.886s-1.178-0.781-1.886-0.781c-0.707 0-1.386 0.281-1.886 0.781s-0.781 1.178-0.781 1.886z"></path>
</symbol>
<symbol id="icon-file" viewBox="0 0 32 32">
<path d="M31.592 12.764c-0.259-0.25-0.611-0.391-0.978-0.391s-0.718 0.141-0.978 0.391l-15.064 14.608c-0.642 0.62-1.405 1.112-2.244 1.448s-1.738 0.508-2.646 0.508c-1.834 0-3.593-0.703-4.89-1.955s-2.026-2.951-2.026-4.722c-0-1.771 0.728-3.47 2.025-4.722l14.59-14.145c0.78-0.741 1.832-1.155 2.927-1.151s2.143 0.426 2.917 1.173c0.774 0.747 1.211 1.76 1.216 2.816s-0.424 2.073-1.191 2.826l-14.59 14.145c-0.263 0.243-0.613 0.379-0.978 0.379s-0.715-0.136-0.978-0.379c-0.259-0.25-0.405-0.59-0.405-0.944s0.146-0.694 0.405-0.944l12.99-12.6c0.252-0.252 0.391-0.589 0.388-0.939s-0.149-0.685-0.405-0.933c-0.257-0.248-0.603-0.388-0.966-0.391s-0.712 0.132-0.973 0.375l-12.99 12.6c-0.385 0.372-0.691 0.814-0.9 1.3s-0.316 1.007-0.316 1.533c0 0.526 0.107 1.047 0.316 1.533s0.514 0.928 0.9 1.3c0.791 0.728 1.841 1.135 2.934 1.135s2.144-0.406 2.934-1.135l14.588-14.146c1.27-1.258 1.975-2.947 1.963-4.704s-0.739-3.437-2.026-4.679-3.027-1.944-4.846-1.955c-1.819-0.011-3.569 0.67-4.871 1.896l-14.59 14.145c-1.816 1.753-2.836 4.131-2.836 6.61s1.020 4.857 2.836 6.61c1.816 1.753 4.278 2.738 6.846 2.738s5.030-0.985 6.846-2.738l15.064-14.604c0.129-0.124 0.232-0.272 0.302-0.434s0.106-0.337 0.106-0.513-0.036-0.35-0.106-0.513c-0.070-0.162-0.173-0.31-0.302-0.434z"></path>
</symbol>
<symbol id="icon-delete" viewBox="0 0 32 32">
<path d="M13.333 23.999c0.354 0 0.693-0.141 0.943-0.391s0.391-0.589 0.391-0.943v-8c0-0.354-0.141-0.693-0.391-0.943s-0.589-0.391-0.943-0.391c-0.354 0-0.693 0.14-0.943 0.391s-0.391 0.589-0.391 0.943v8c0 0.354 0.14 0.693 0.391 0.943s0.589 0.391 0.943 0.391z"></path>
<path d="M18.667 23.999c0.354 0 0.693-0.141 0.943-0.391s0.391-0.589 0.391-0.943v-8c0-0.354-0.141-0.693-0.391-0.943s-0.589-0.391-0.943-0.391c-0.354 0-0.693 0.14-0.943 0.391s-0.391 0.589-0.391 0.943v8c0 0.354 0.141 0.693 0.391 0.943s0.589 0.391 0.943 0.391z"></path>
<path d="M23.867 5.333h4.133c0.354 0 0.693 0.14 0.943 0.391s0.391 0.589 0.391 0.943c0 0.354-0.141 0.693-0.391 0.943s-0.589 0.391-0.943 0.391h-1.333v17.333c-0.002 1.767-0.705 3.462-1.955 4.712s-2.944 1.953-4.712 1.955h-8c-1.767-0.002-3.462-0.705-4.712-1.955s-1.953-2.944-1.955-4.712v-17.333h-1.333c-0.354 0-0.693-0.14-0.943-0.391s-0.391-0.589-0.391-0.943c0-0.354 0.14-0.693 0.391-0.943s0.589-0.391 0.943-0.391h4.133c0.309-1.505 1.128-2.857 2.318-3.828s2.679-1.503 4.215-1.505h2.667c1.536 0.002 3.025 0.533 4.215 1.505s2.009 2.324 2.318 3.828zM17.333 2.667h-2.667c-0.827 0.001-1.633 0.258-2.309 0.735s-1.186 1.152-1.463 1.931h10.211c-0.277-0.779-0.788-1.454-1.463-1.931s-1.482-0.734-2.309-0.735zM22.828 28.162c0.75-0.75 1.172-1.768 1.172-2.828v-17.333h-16v17.333c0 1.061 0.421 2.078 1.172 2.828s1.768 1.172 2.828 1.172h8c1.061 0 2.078-0.421 2.828-1.172z"></path>
</symbol>
<symbol id="icon-edit" viewBox="0 0 32 32">
<path d="M30.582 1.419c-0.91-0.908-2.143-1.419-3.428-1.419s-2.519 0.51-3.428 1.419l-21.765 21.765c-0.623 0.62-1.117 1.357-1.454 2.169s-0.509 1.683-0.506 2.562v2.747c0 0.355 0.141 0.695 0.392 0.946s0.591 0.392 0.946 0.392h2.747c0.879 0.002 1.75-0.169 2.562-0.506s1.549-0.83 2.169-1.453l21.766-21.766c0.908-0.91 1.418-2.143 1.418-3.428s-0.51-2.518-1.418-3.428zM6.924 28.148c-0.755 0.75-1.775 1.172-2.838 1.175h-1.409v-1.409c-0.001-0.527 0.102-1.050 0.304-1.537s0.498-0.93 0.872-1.301l16.518-16.518 3.078 3.078-16.524 16.512zM28.688 6.382l-3.353 3.355-3.078-3.071 3.355-3.355c0.202-0.202 0.442-0.362 0.706-0.47s0.547-0.165 0.832-0.165c0.285 0 0.568 0.057 0.832 0.166s0.503 0.27 0.705 0.472c0.202 0.202 0.362 0.442 0.471 0.706s0.165 0.547 0.165 0.832-0.057 0.568-0.166 0.832c-0.11 0.264-0.27 0.503-0.472 0.705l0.005-0.007z"></path>
</symbol>
<symbol id="icon-language" viewBox="0 0 32 32">
<path d="M16 0c-3.164 0-6.258 0.938-8.889 2.696s-4.682 4.257-5.893 7.181c-1.211 2.924-1.528 6.141-0.91 9.244s2.141 5.955 4.379 8.192 5.089 3.762 8.192 4.379c3.104 0.617 6.321 0.301 9.244-0.91s5.422-3.262 7.181-5.893c1.758-2.631 2.697-5.725 2.697-8.889-0.005-4.242-1.692-8.309-4.691-11.309s-7.067-4.687-11.309-4.691v0zM29.333 16c0.002 2.613-0.769 5.168-2.216 7.344l-1.589-1.591c-0.125-0.125-0.195-0.294-0.195-0.471v-1.283c0-1.061-0.421-2.078-1.172-2.828s-1.768-1.172-2.828-1.172h-4c-0.354 0-0.693-0.14-0.943-0.391s-0.391-0.589-0.391-0.943v-0.667c0-0.177 0.070-0.346 0.195-0.471s0.295-0.195 0.471-0.195c0.884 0 1.732-0.351 2.357-0.976s0.976-1.473 0.976-2.357v-1.333c0-0.177 0.070-0.346 0.195-0.471s0.295-0.195 0.471-0.195h1.839c0.883-0.003 1.73-0.353 2.356-0.976l0.503-0.503c1.258 1.237 2.256 2.713 2.938 4.34s1.032 3.374 1.032 5.138zM2.732 17.284l4.211 4.211c0.371 0.373 0.811 0.669 1.297 0.87s1.006 0.304 1.532 0.302h3.561c0.354 0 0.693 0.14 0.943 0.391s0.391 0.589 0.391 0.943v5.265c-3.066-0.313-5.93-1.677-8.105-3.861s-3.528-5.053-3.829-8.12zM17.333 29.265v-5.265c0-1.061-0.421-2.078-1.172-2.828s-1.768-1.172-2.828-1.172h-3.561c-0.175 0-0.349-0.034-0.511-0.101s-0.309-0.165-0.433-0.289l-5.944-5.944c0.382-2.169 1.296-4.209 2.66-5.938s3.137-3.092 5.158-3.966c2.021-0.875 4.228-1.234 6.422-1.046s4.308 0.918 6.15 2.125l-0.299 0.299c-0.125 0.124-0.294 0.194-0.471 0.195h-1.839c-0.884 0-1.732 0.351-2.357 0.976s-0.976 1.473-0.976 2.357v1.333c0 0.177-0.070 0.346-0.195 0.471s-0.295 0.195-0.471 0.195c-0.884 0-1.732 0.351-2.357 0.976s-0.976 1.473-0.976 2.357v0.667c0 1.061 0.421 2.078 1.172 2.828s1.768 1.172 2.828 1.172h4c0.354 0 0.693 0.14 0.943 0.391s0.391 0.589 0.391 0.943v1.283c0.003 0.883 0.353 1.73 0.976 2.356l1.783 1.783c-2.171 2.179-5.031 3.537-8.092 3.844z"></path>
</symbol>
<symbol id="icon-log_out" viewBox="0 0 32 32">
<path d="M30.444 12.228l-5.173-5.172c-0.252-0.243-0.588-0.377-0.938-0.374s-0.684 0.143-0.931 0.39c-0.247 0.247-0.387 0.582-0.391 0.931s0.131 0.686 0.374 0.938l5.173 5.172c0.154 0.157 0.288 0.331 0.4 0.52-0.020 0-0.036-0.011-0.056-0.011l-20.915 0.043c-0.354 0-0.693 0.14-0.943 0.391s-0.391 0.589-0.391 0.943c0 0.354 0.141 0.693 0.391 0.943s0.589 0.391 0.943 0.391l20.907-0.043c0.037 0 0.068-0.019 0.104-0.021-0.118 0.226-0.268 0.433-0.445 0.616l-5.173 5.172c-0.127 0.123-0.229 0.27-0.299 0.433s-0.107 0.338-0.108 0.515 0.032 0.353 0.099 0.517c0.067 0.164 0.166 0.313 0.291 0.438s0.274 0.224 0.438 0.291c0.164 0.067 0.34 0.101 0.517 0.099s0.352-0.038 0.515-0.108c0.163-0.070 0.31-0.171 0.433-0.299l5.173-5.172c1-1 1.562-2.357 1.562-3.771s-0.562-2.771-1.562-3.771h0.005z"></path>
<path d="M9.335 29.333h-2.667c-1.061 0-2.079-0.421-2.829-1.172s-1.172-1.768-1.172-2.828v-18.667c0-1.061 0.421-2.078 1.172-2.828s1.768-1.172 2.829-1.172h2.667c0.354 0 0.693-0.14 0.943-0.391s0.391-0.589 0.391-0.943c0-0.354-0.14-0.693-0.391-0.943s-0.589-0.391-0.943-0.391h-2.667c-1.768 0.002-3.462 0.705-4.713 1.955s-1.953 2.944-1.955 4.712v18.667c0.002 1.767 0.705 3.462 1.955 4.712s2.945 1.953 4.713 1.955h2.667c0.354 0 0.693-0.14 0.943-0.391s0.391-0.589 0.391-0.943c0-0.354-0.14-0.693-0.391-0.943s-0.589-0.391-0.943-0.391z"></path>
</symbol>
<symbol id="icon-messenger" viewBox="0 0 32 32">
<path d="M25.333 2.667h-18.667c-1.767 0.002-3.462 0.641-4.712 1.777s-1.953 2.677-1.955 4.283v14.545c0.002 1.607 0.705 3.147 1.955 4.283s2.944 1.775 4.712 1.777h18.667c1.767-0.002 3.462-0.641 4.712-1.777s1.953-2.677 1.955-4.283v-14.545c-0.002-1.607-0.705-3.147-1.955-4.283s-2.944-1.775-4.712-1.777zM6.667 5.091h18.667c0.798 0.001 1.578 0.22 2.239 0.628s1.172 0.986 1.468 1.66l-10.211 9.284c-0.751 0.68-1.769 1.062-2.829 1.062s-2.078-0.382-2.829-1.062l-10.211-9.284c0.296-0.674 0.807-1.252 1.468-1.66s1.44-0.626 2.239-0.628zM25.333 26.909h-18.667c-1.061 0-2.078-0.383-2.828-1.065s-1.172-1.607-1.172-2.571v-12.727l8.619 7.83c1.252 1.135 2.947 1.772 4.715 1.772s3.463-0.637 4.715-1.772l8.619-7.83v12.727c0 0.965-0.421 1.889-1.172 2.571s-1.768 1.065-2.828 1.065z"></path>
</symbol>
<symbol id="icon-my_chats" viewBox="0 0 32 32">
<path d="M26.667 0h-21.333c-1.415 0-2.771 0.562-3.771 1.562s-1.562 2.357-1.562 3.771v16c0 1.415 0.562 2.771 1.562 3.771s2.357 1.562 3.771 1.562h3.867l5.935 5.017c0.241 0.204 0.546 0.316 0.861 0.316s0.621-0.112 0.861-0.316l5.943-5.017h3.867c1.415 0 2.771-0.562 3.771-1.562s1.562-2.357 1.562-3.771v-16c0-1.415-0.562-2.771-1.562-3.771s-2.357-1.562-3.771-1.562zM29.333 21.334c0 0.707-0.281 1.386-0.781 1.886s-1.178 0.781-1.886 0.781h-3.867c-0.63 0-1.24 0.224-1.721 0.631l-5.079 4.289-5.076-4.289c-0.482-0.408-1.093-0.631-1.724-0.631h-3.867c-0.707 0-1.386-0.281-1.886-0.781s-0.781-1.178-0.781-1.886v-16c0-0.707 0.281-1.386 0.781-1.886s1.178-0.781 1.886-0.781h21.333c0.707 0 1.385 0.281 1.886 0.781s0.781 1.178 0.781 1.886v16z"></path>
</symbol>
<symbol id="icon-notifications" viewBox="0 0 32 32">
<path d="M27.848 20.441l-5.037 8.207c-0.553 0.907-1.306 1.675-2.202 2.248s-1.91 0.933-2.966 1.055c-0.278 0.033-0.558 0.049-0.839 0.049-1.435-0.002-2.834-0.447-4.006-1.273-1.211 0.906-2.707 1.349-4.217 1.248s-2.934-0.738-4.014-1.796c-1.080-1.059-1.744-2.468-1.873-3.974s0.287-3.007 1.172-4.233l-1.756-1.751c-0.75-0.749-1.32-1.657-1.669-2.657s-0.466-2.066-0.343-3.117c0.123-1.052 0.482-2.062 1.051-2.955s1.333-1.647 2.235-2.203l7.701-4.755c2.086-1.335 4.539-1.982 7.013-1.85s4.845 1.036 6.776 2.585l2.215-2.212c0.123-0.127 0.271-0.229 0.433-0.299s0.338-0.107 0.515-0.108c0.177-0.002 0.353 0.032 0.517 0.099s0.313 0.166 0.439 0.291c0.125 0.125 0.225 0.274 0.292 0.438s0.101 0.339 0.099 0.516c-0.001 0.177-0.038 0.352-0.108 0.515s-0.172 0.31-0.299 0.433l-2.213 2.211c1.484 1.856 2.38 4.113 2.572 6.48s-0.327 4.738-1.492 6.809zM10.763 28.863l-4.966-4.96c-0.388 0.693-0.538 1.494-0.426 2.28s0.479 1.514 1.044 2.072c0.571 0.541 1.297 0.891 2.076 1s1.574-0.028 2.272-0.392zM24.011 8.063c-1.483-1.495-3.435-2.436-5.529-2.666s-4.205 0.266-5.977 1.403l-7.714 4.755c-0.559 0.345-1.033 0.812-1.386 1.367s-0.576 1.181-0.652 1.833-0.003 1.313 0.213 1.934c0.216 0.62 0.57 1.184 1.035 1.648l9.735 9.721c0.466 0.466 1.031 0.82 1.654 1.036s1.286 0.288 1.941 0.211c0.655-0.077 1.283-0.301 1.839-0.656s1.023-0.83 1.368-1.391l5.014-8.167c0.979-1.756 1.359-3.783 1.081-5.775s-1.197-3.838-2.62-5.26v0.007zM25.719 32c-0.282 0.001-0.557-0.088-0.785-0.253s-0.399-0.398-0.486-0.666-0.088-0.556-0.001-0.824c0.087-0.268 0.256-0.502 0.484-0.668 2.338-1.755 3.921-4.332 4.427-7.209 0.035-0.173 0.105-0.338 0.205-0.484s0.228-0.271 0.376-0.367 0.315-0.162 0.489-0.194c0.174-0.032 0.353-0.028 0.526 0.010s0.336 0.11 0.481 0.212c0.145 0.102 0.268 0.231 0.362 0.381s0.158 0.317 0.187 0.491c0.029 0.174 0.023 0.353-0.018 0.525-0.654 3.509-2.602 6.645-5.459 8.791-0.229 0.166-0.504 0.256-0.787 0.256zM1.329 7.652c-0.247-0.001-0.488-0.070-0.698-0.2s-0.379-0.315-0.49-0.535c-0.111-0.22-0.158-0.466-0.137-0.712s0.11-0.48 0.256-0.678c2.178-2.906 5.384-4.873 8.964-5.5 0.347-0.071 0.708-0.001 1.004 0.194s0.501 0.499 0.572 0.846c0.071 0.347 0.001 0.707-0.194 1.002s-0.5 0.501-0.847 0.571c-2.94 0.485-5.579 2.087-7.362 4.472-0.124 0.167-0.285 0.303-0.47 0.396s-0.39 0.143-0.598 0.144z"></path>
</symbol>
<symbol id="icon-password" viewBox="0 0 32 32">
<path d="M25.541 11.232v-1.899c0-2.475-1.005-4.849-2.794-6.6s-4.216-2.734-6.746-2.734c-2.53 0-4.957 0.983-6.746 2.734s-2.794 4.124-2.794 6.6v1.899c-1.214 0.518-2.247 1.371-2.973 2.455s-1.114 2.351-1.116 3.646v8c0.002 1.767 0.721 3.462 1.998 4.712s3.010 1.953 4.816 1.955h13.63c1.807-0.002 3.539-0.705 4.816-1.955s1.996-2.944 1.998-4.712v-8c-0.002-1.296-0.389-2.563-1.116-3.646s-1.759-1.937-2.973-2.455zM9.185 9.333c0-1.768 0.718-3.464 1.996-4.714s3.011-1.953 4.819-1.953c1.807 0 3.541 0.702 4.819 1.953s1.996 2.946 1.996 4.714v1.333h-13.63v-1.333zM26.904 25.333c0 1.061-0.431 2.078-1.198 2.828s-1.807 1.172-2.891 1.172h-13.63c-1.084 0-2.124-0.421-2.891-1.172s-1.198-1.768-1.198-2.828v-8c0-1.061 0.431-2.078 1.198-2.828s1.807-1.172 2.891-1.172h13.63c1.084 0 2.124 0.421 2.891 1.172s1.198 1.768 1.198 2.828v8z"></path>
<path d="M16 18.666c-0.361 0-0.708 0.14-0.964 0.391s-0.399 0.589-0.399 0.943v2.667c0 0.354 0.144 0.693 0.399 0.943s0.602 0.391 0.964 0.391 0.708-0.14 0.964-0.391c0.256-0.25 0.399-0.589 0.399-0.943v-2.667c0-0.354-0.144-0.693-0.399-0.943s-0.602-0.391-0.964-0.391z"></path>
</symbol>
<symbol id="icon-saved_chats" viewBox="0 0 32 32">
<path d="M27.835 31.995c-0.538-0.001-1.071-0.1-1.567-0.291s-0.946-0.47-1.323-0.822l-8.945-8.151-8.945 8.156c-0.575 0.534-1.311 0.897-2.114 1.042s-1.635 0.065-2.387-0.23c-0.76-0.28-1.41-0.764-1.865-1.388s-0.695-1.359-0.687-2.11v-21.535c0-1.768 0.766-3.463 2.13-4.713s3.214-1.952 5.143-1.952h17.454c0.955 0 1.901 0.172 2.783 0.507s1.684 0.826 2.359 1.445c0.675 0.619 1.211 1.354 1.577 2.163s0.553 1.675 0.553 2.551v21.535c0.008 0.75-0.23 1.485-0.685 2.109s-1.103 1.108-1.862 1.389c-0.512 0.196-1.062 0.297-1.617 0.296zM7.273 2.666c-1.157 0-2.267 0.421-3.086 1.171s-1.278 1.767-1.278 2.828v21.535c-0.001 0.222 0.071 0.439 0.205 0.625s0.325 0.329 0.549 0.415 0.47 0.108 0.708 0.066c0.238-0.043 0.457-0.149 0.629-0.306l9.982-9.093c0.273-0.248 0.641-0.388 1.025-0.388s0.753 0.139 1.025 0.388l9.971 9.091c0.172 0.156 0.391 0.263 0.629 0.305s0.484 0.020 0.708-0.066c0.224-0.086 0.415-0.23 0.549-0.415s0.205-0.402 0.205-0.625v-21.533c0-1.061-0.46-2.078-1.278-2.828s-1.928-1.171-3.085-1.171h-17.457z"></path>
</symbol>
<symbol id="icon-search" viewBox="0 0 32 32">
<path d="M31.626 29.742l-7.952-7.952c2.167-2.65 3.233-6.032 2.976-9.446s-1.815-6.599-4.354-8.895c-2.539-2.297-5.863-3.53-9.286-3.444s-6.681 1.483-9.102 3.904-3.819 5.679-3.904 9.102c-0.086 3.423 1.148 6.747 3.444 9.286s5.482 4.098 8.895 4.354c3.414 0.257 6.796-0.809 9.446-2.976l7.952 7.952c0.251 0.243 0.588 0.377 0.937 0.374s0.683-0.143 0.93-0.39c0.247-0.247 0.387-0.581 0.39-0.93s-0.131-0.686-0.374-0.937zM13.365 24.023c-2.108 0-4.169-0.625-5.921-1.796s-3.119-2.836-3.925-4.783-1.018-4.090-0.607-6.158c0.411-2.067 1.426-3.966 2.917-5.457s3.39-2.506 5.457-2.917c2.067-0.411 4.21-0.2 6.158 0.607s3.612 2.173 4.783 3.925c1.171 1.753 1.796 3.813 1.796 5.921-0.003 2.826-1.127 5.535-3.125 7.533s-4.707 3.122-7.533 3.125z"></path>
</symbol>
<symbol id="icon-see_more" viewBox="0 0 32 32">
<path d="M7.385 16c0 2.039-1.653 3.692-3.692 3.692s-3.692-1.653-3.692-3.692c0-2.039 1.653-3.692 3.692-3.692s3.692 1.653 3.692 3.692z"></path>
<path d="M19.692 16c0 2.039-1.653 3.692-3.692 3.692s-3.692-1.653-3.692-3.692c0-2.039 1.653-3.692 3.692-3.692s3.692 1.653 3.692 3.692z"></path>
<path d="M32 16c0 2.039-1.653 3.692-3.692 3.692s-3.692-1.653-3.692-3.692c0-2.039 1.653-3.692 3.692-3.692s3.692 1.653 3.692 3.692z"></path>
</symbol>
<symbol id="icon-itheme" viewBox="0 0 32 32">
<path d="M25.333 0h-18.667c-1.767 0.002-3.462 0.705-4.712 1.955s-1.953 2.944-1.955 4.712v6.667c0.003 2.474 0.988 4.846 2.737 6.596s4.122 2.734 6.596 2.737h2.667v5.333c0 1.061 0.421 2.078 1.172 2.828s1.768 1.172 2.828 1.172c1.061 0 2.078-0.421 2.828-1.172s1.172-1.768 1.172-2.828v-5.333h2.667c2.474-0.003 4.846-0.988 6.596-2.737s2.734-4.122 2.737-6.596v-6.667c-0.002-1.767-0.705-3.462-1.955-4.712s-2.944-1.953-4.712-1.955v0zM2.667 6.667c0-1.061 0.421-2.078 1.172-2.828s1.768-1.172 2.828-1.172h6.667v1.333c0 0.354 0.14 0.693 0.391 0.943s0.589 0.391 0.943 0.391c0.354 0 0.693-0.14 0.943-0.391s0.391-0.589 0.391-0.943v-1.333h2.667v4c0 0.354 0.14 0.693 0.391 0.943s0.589 0.391 0.943 0.391c0.354 0 0.693-0.14 0.943-0.391s0.391-0.589 0.391-0.943v-4h2.667v6.667c0 0.354 0.14 0.693 0.391 0.943s0.589 0.391 0.943 0.391c0.354 0 0.693-0.14 0.943-0.391s0.391-0.589 0.391-0.943v-6.421c0.777 0.275 1.451 0.783 1.928 1.455s0.735 1.475 0.739 2.3v6.667h-26.667v-6.667zM22.667 20h-4c-0.354 0-0.693 0.14-0.943 0.391s-0.391 0.589-0.391 0.943v6.667c0 0.354-0.14 0.693-0.391 0.943s-0.589 0.391-0.943 0.391c-0.354 0-0.693-0.14-0.943-0.391s-0.391-0.589-0.391-0.943v-6.667c0-0.354-0.14-0.693-0.391-0.943s-0.589-0.391-0.943-0.391h-4c-1.296-0.002-2.563-0.381-3.646-1.091s-1.937-1.721-2.455-2.909h25.536c-0.518 1.188-1.371 2.198-2.455 2.909s-2.351 1.090-3.646 1.091z"></path>
</symbol>
<symbol id="icon-close" viewBox="0 0 32 32">
<path d="M31.256 0.744c-0.477-0.477-1.123-0.744-1.798-0.744s-1.321 0.268-1.798 0.744l-11.66 11.66-11.66-11.66c-0.477-0.477-1.123-0.744-1.798-0.744s-1.321 0.268-1.798 0.744c-0.477 0.477-0.744 1.123-0.744 1.798s0.268 1.321 0.744 1.798l11.66 11.66-11.66 11.66c-0.477 0.477-0.744 1.123-0.744 1.798s0.268 1.321 0.744 1.798c0.477 0.477 1.123 0.744 1.798 0.744s1.321-0.268 1.798-0.744l11.66-11.66 11.66 11.66c0.477 0.477 1.123 0.744 1.798 0.744s1.321-0.268 1.798-0.744c0.477-0.477 0.744-1.123 0.744-1.798s-0.268-1.321-0.744-1.798l-11.66-11.66 11.66-11.66c0.477-0.477 0.744-1.123 0.744-1.798s-0.268-1.321-0.744-1.798z"></path>
</symbol>
<symbol id="icon-state_default" viewBox="0 0 32 32">
<path d="M23.33 1.778c-1.501 0.024-2.969 0.447-4.256 1.229s-2.348 1.892-3.075 3.221c-0.727-1.329-1.787-2.44-3.074-3.221s-2.755-1.205-4.256-1.229c-2.392 0.105-4.646 1.164-6.27 2.945s-2.484 4.14-2.393 6.561c0 6.131 6.379 12.827 11.729 17.366 1.194 1.015 2.705 1.572 4.265 1.572s3.070-0.557 4.265-1.572c5.35-4.54 11.729-11.236 11.729-17.366 0.090-2.421-0.77-4.78-2.393-6.561s-3.877-2.84-6.27-2.945zM18.552 26.587c-0.715 0.609-1.618 0.942-2.552 0.942s-1.838-0.334-2.552-0.942c-6.848-5.813-10.776-11.389-10.776-15.303-0.091-1.706 0.488-3.379 1.612-4.655s2.7-2.050 4.386-2.154c1.686 0.104 3.262 0.879 4.386 2.154s1.703 2.949 1.612 4.655c0 0.358 0.14 0.701 0.39 0.953s0.589 0.395 0.942 0.395c0.353 0 0.692-0.142 0.942-0.395s0.39-0.596 0.39-0.953c-0.091-1.706 0.488-3.379 1.612-4.655s2.7-2.050 4.386-2.154c1.686 0.104 3.262 0.879 4.386 2.154s1.703 2.949 1.612 4.655c0 3.914-3.928 9.491-10.776 15.298v0.005z"></path>
</symbol>
<symbol id="icon-union" viewBox="0 0 32 32">
<path d="M4.981 6.334h-3.648c-0.354 0-0.693-0.14-0.943-0.391s-0.391-0.589-0.391-0.943c0-0.354 0.14-0.693 0.391-0.943s0.589-0.391 0.943-0.391h3.648c0.286-1.053 0.911-1.983 1.778-2.645s1.928-1.022 3.019-1.022c1.091 0 2.152 0.359 3.019 1.022s1.492 1.592 1.778 2.645h16.092c0.354 0 0.693 0.14 0.943 0.391s0.391 0.589 0.391 0.943c0 0.354-0.141 0.693-0.391 0.943s-0.589 0.391-0.943 0.391h-16.092c-0.286 1.053-0.911 1.983-1.778 2.645s-1.928 1.022-3.019 1.022c-1.091 0-2.152-0.359-3.019-1.022s-1.492-1.592-1.778-2.645zM11.074 3.060c-0.384-0.256-0.835-0.393-1.296-0.393-0.619 0.001-1.212 0.247-1.649 0.684s-0.684 1.030-0.684 1.649c0 0.462 0.137 0.913 0.393 1.296s0.621 0.683 1.047 0.859c0.426 0.177 0.896 0.223 1.348 0.133s0.868-0.312 1.195-0.639c0.326-0.326 0.549-0.742 0.639-1.195s0.044-0.922-0.133-1.348c-0.177-0.426-0.476-0.791-0.859-1.047zM30.667 14.665h-3.648c-0.286-1.053-0.91-1.983-1.777-2.646s-1.928-1.022-3.019-1.022c-1.091 0-2.152 0.359-3.019 1.022s-1.491 1.593-1.777 2.646h-16.093c-0.354 0-0.693 0.141-0.943 0.391s-0.391 0.589-0.391 0.943 0.14 0.693 0.391 0.943c0.25 0.25 0.589 0.391 0.943 0.391h16.093c0.286 1.053 0.91 1.983 1.777 2.646s1.928 1.022 3.019 1.022c1.091 0 2.152-0.359 3.019-1.022s1.491-1.593 1.777-2.646h3.648c0.354 0 0.693-0.14 0.943-0.391s0.391-0.589 0.391-0.943-0.141-0.693-0.391-0.943c-0.25-0.25-0.589-0.391-0.943-0.391zM22.223 18.332c-0.461 0-0.913-0.137-1.296-0.393s-0.683-0.621-0.859-1.047c-0.177-0.426-0.223-0.895-0.133-1.348s0.312-0.868 0.639-1.195c0.326-0.326 0.742-0.549 1.195-0.639s0.922-0.044 1.348 0.133c0.426 0.177 0.791 0.476 1.047 0.859s0.393 0.835 0.393 1.296c-0.001 0.619-0.247 1.212-0.684 1.649s-1.031 0.683-1.649 0.684zM30.667 25.667h-16.092c-0.286-1.053-0.911-1.982-1.778-2.645s-1.928-1.022-3.019-1.022-2.152 0.359-3.019 1.022c-0.867 0.663-1.492 1.592-1.778 2.645h-3.648c-0.354 0-0.693 0.141-0.943 0.391s-0.391 0.589-0.391 0.943c0 0.354 0.14 0.693 0.391 0.943s0.589 0.391 0.943 0.391h3.648c0.286 1.053 0.911 1.983 1.778 2.645s1.928 1.022 3.019 1.022 2.152-0.359 3.019-1.022c0.867-0.663 1.492-1.592 1.778-2.645h16.092c0.354 0 0.693-0.14 0.943-0.391s0.391-0.589 0.391-0.943c0-0.354-0.141-0.693-0.391-0.943s-0.589-0.391-0.943-0.391zM9.777 29.334c-0.462 0-0.913-0.137-1.296-0.393s-0.683-0.621-0.859-1.047c-0.177-0.426-0.223-0.895-0.133-1.348s0.312-0.868 0.639-1.195c0.326-0.326 0.742-0.549 1.195-0.639s0.922-0.044 1.348 0.133c0.426 0.177 0.791 0.476 1.047 0.859s0.393 0.835 0.393 1.296c-0.001 0.619-0.247 1.211-0.685 1.649s-1.030 0.683-1.649 0.685z"></path>
</symbol>
<symbol id="icon-photo" viewBox="0 0 32 32">
<path d="M25.333 5.333h-0.677l-2.912-3.776c-0.375-0.483-0.856-0.874-1.404-1.144s-1.152-0.411-1.764-0.413h-5.152c-0.612 0.002-1.215 0.144-1.764 0.413s-1.029 0.661-1.404 1.144l-2.912 3.776h-0.677c-1.767 0.002-3.462 0.705-4.712 1.955s-1.953 2.944-1.955 4.712v13.333c0.002 1.767 0.705 3.462 1.955 4.712s2.944 1.953 4.712 1.955h18.667c1.767-0.002 3.462-0.705 4.712-1.955s1.953-2.944 1.955-4.712v-13.333c-0.002-1.767-0.705-3.462-1.955-4.712s-2.944-1.953-4.712-1.955zM12.368 3.187c0.125-0.161 0.285-0.292 0.468-0.382s0.384-0.137 0.588-0.138h5.152c0.204 0.001 0.405 0.048 0.588 0.138s0.343 0.221 0.468 0.382l1.656 2.147h-10.576l1.656-2.147zM29.333 25.333c0 1.061-0.421 2.078-1.172 2.828s-1.768 1.172-2.828 1.172h-18.667c-1.061 0-2.078-0.421-2.828-1.172s-1.172-1.768-1.172-2.828v-13.333c0-1.061 0.421-2.078 1.172-2.828s1.768-1.172 2.828-1.172h18.667c1.061 0 2.078 0.421 2.828 1.172s1.172 1.768 1.172 2.828v13.333z"></path>
<path d="M16 10.667c-1.582 0-3.129 0.469-4.445 1.348s-2.341 2.129-2.946 3.59c-0.605 1.462-0.764 3.070-0.455 4.622s1.071 2.977 2.189 4.096c1.119 1.119 2.544 1.881 4.096 2.189s3.16 0.15 4.622-0.455c1.462-0.605 2.711-1.631 3.59-2.947s1.348-2.862 1.348-4.445c-0.002-2.121-0.846-4.155-2.345-5.654s-3.533-2.343-5.655-2.345zM16 24c-1.055 0-2.086-0.313-2.963-0.899s-1.561-1.419-1.964-2.394c-0.404-0.975-0.509-2.047-0.303-3.081s0.714-1.985 1.46-2.731 1.696-1.254 2.731-1.46c1.035-0.206 2.107-0.1 3.081 0.303s1.807 1.087 2.393 1.964 0.899 1.908 0.899 2.963c0 1.415-0.562 2.771-1.562 3.771s-2.357 1.562-3.771 1.562z"></path>
</symbol>
<symbol id="icon-add" viewBox="0 0 32 32">
<path fill="#eaeaea" style="fill: var(--color7, #eaeaea)" d="M23.531 17.131c0.3-0.3 0.469-0.707 0.469-1.131s-0.169-0.831-0.469-1.131c-0.3-0.3-0.707-0.469-1.131-0.469h-4.8v-4.8c0-0.424-0.169-0.831-0.469-1.131s-0.707-0.469-1.131-0.469c-0.424 0-0.831 0.169-1.131 0.469s-0.469 0.707-0.469 1.131v4.8h-4.8c-0.424 0-0.831 0.169-1.131 0.469s-0.469 0.707-0.469 1.131c0 0.424 0.169 0.831 0.469 1.131s0.707 0.469 1.131 0.469h4.8v4.8c0 0.424 0.169 0.831 0.469 1.131s0.707 0.469 1.131 0.469 0.831-0.168 1.131-0.469c0.3-0.3 0.469-0.707 0.469-1.131v-4.8h4.8c0.424 0 0.831-0.169 1.131-0.469z"></path>
<path fill="#212121" style="fill: var(--color8, #212121)" d="M16 32c-3.165 0-6.258-0.938-8.889-2.696s-4.682-4.257-5.893-7.181c-1.211-2.924-1.528-6.141-0.91-9.244s2.141-5.955 4.379-8.192c2.238-2.238 5.089-3.761 8.192-4.379s6.321-0.3 9.244 0.91c2.924 1.211 5.423 3.262 7.181 5.893s2.696 5.725 2.696 8.889c-0.005 4.242-1.692 8.309-4.691 11.309s-7.067 4.687-11.309 4.691zM23.531 17.131c0.3-0.3 0.469-0.707 0.469-1.131s-0.169-0.831-0.469-1.131c-0.3-0.3-0.707-0.469-1.131-0.469h-4.8v-4.8c0-0.424-0.169-0.831-0.469-1.131s-0.707-0.469-1.131-0.469c-0.424 0-0.831 0.169-1.131 0.469s-0.469 0.707-0.469 1.131v4.8h-4.8c-0.424 0-0.831 0.169-1.131 0.469s-0.469 0.707-0.469 1.131c0 0.424 0.169 0.831 0.469 1.131s0.707 0.469 1.131 0.469h4.8v4.8c0 0.424 0.169 0.831 0.469 1.131s0.707 0.469 1.131 0.469 0.831-0.168 1.131-0.469c0.3-0.3 0.469-0.707 0.469-1.131v-4.8h4.8c0.424 0 0.831-0.169 1.131-0.469z"></path>
</symbol>
<symbol id="icon-accepted" viewBox="0 0 32 32">
<path fill="#2ca129" style="fill: var(--color9, #2ca129)" d="M26.144 5.738l-13.402 13.44-7.181-7.488c-0.288-0.315-0.636-0.569-1.024-0.748s-0.808-0.277-1.234-0.291c-0.427-0.014-0.852 0.058-1.251 0.211s-0.762 0.385-1.070 0.681-0.553 0.651-0.722 1.043c-0.169 0.392-0.257 0.814-0.26 1.241s0.080 0.85 0.243 1.245c0.163 0.395 0.404 0.753 0.707 1.053l7.379 7.68c0.55 0.594 1.216 1.071 1.955 1.401s1.539 0.507 2.349 0.519h0.106c0.794 0.003 1.58-0.152 2.314-0.456s1.399-0.75 1.958-1.313l13.67-13.67c0.299-0.298 0.536-0.652 0.697-1.041s0.245-0.807 0.246-1.229-0.082-0.84-0.243-1.229c-0.161-0.39-0.397-0.744-0.695-1.043s-0.652-0.536-1.041-0.697c-0.39-0.162-0.807-0.245-1.229-0.246s-0.84 0.082-1.229 0.243c-0.39 0.161-0.744 0.397-1.043 0.695z"></path>
</symbol>
<symbol id="icon-error" viewBox="0 0 32 32">
<path fill="#d83434" style="fill: var(--color10, #d83434)" d="M16 22.857c-0.606 0-1.188-0.241-1.616-0.669s-0.669-1.010-0.669-1.616v-18.286c0-0.606 0.241-1.188 0.669-1.616s1.010-0.669 1.616-0.669c0.606 0 1.188 0.241 1.616 0.669s0.669 1.010 0.669 1.616v18.286c0 0.606-0.241 1.188-0.669 1.616s-1.010 0.669-1.616 0.669zM16 27.429c-0.452 0-0.894 0.134-1.27 0.385s-0.669 0.608-0.842 1.026-0.218 0.877-0.13 1.321c0.088 0.443 0.306 0.851 0.626 1.17s0.727 0.537 1.17 0.626 0.903 0.043 1.321-0.13c0.418-0.173 0.775-0.466 1.026-0.842s0.385-0.818 0.385-1.27c0-0.606-0.241-1.188-0.669-1.616s-1.010-0.669-1.616-0.669z"></path>
</symbol>
<symbol id="icon-back" viewBox="0 0 32 32">
<path fill="#212121" style="fill: var(--color8, #212121)" d="M32 16c0-8.837-7.163-16-16-16s-16 7.163-16 16c0 8.837 7.163 16 16 16s16-7.163 16-16zM22.446 10.917l3.44 3.304c0.499 0.475 0.78 1.12 0.78 1.792s-0.281 1.316-0.78 1.792l-3.44 3.279c-0.083 0.079-0.181 0.142-0.289 0.185s-0.225 0.065-0.342 0.065c-0.117 0-0.234-0.022-0.342-0.065s-0.207-0.106-0.289-0.185c-0.083-0.079-0.149-0.172-0.195-0.275s-0.068-0.213-0.068-0.325 0.023-0.222 0.068-0.325c0.045-0.103 0.111-0.196 0.195-0.275l3.218-3.051h-18.18c-0.236 0-0.462-0.089-0.629-0.247s-0.26-0.373-0.26-0.598 0.094-0.439 0.26-0.598c0.167-0.159 0.393-0.247 0.629-0.247h18.126l-3.165-3.034c-0.166-0.158-0.259-0.373-0.259-0.596s0.093-0.437 0.259-0.596c0.083-0.079 0.181-0.142 0.289-0.185s0.225-0.065 0.342-0.065c0.117 0 0.233 0.022 0.342 0.065s0.207 0.106 0.289 0.185z"></path>
<path fill="#eaeaea" style="fill: var(--color7, #eaeaea)" d="M25.887 14.221l-3.44-3.304c-0.083-0.079-0.181-0.142-0.289-0.185s-0.225-0.065-0.342-0.065c-0.117 0-0.234 0.022-0.342 0.065s-0.207 0.106-0.289 0.185c-0.166 0.158-0.259 0.373-0.259 0.596s0.093 0.437 0.259 0.596l3.165 3.034h-18.126c-0.236 0-0.462 0.089-0.629 0.247s-0.26 0.373-0.26 0.598c0 0.224 0.094 0.439 0.26 0.598s0.393 0.247 0.629 0.247h18.18l-3.218 3.051c-0.083 0.079-0.149 0.172-0.195 0.275s-0.068 0.213-0.068 0.325 0.023 0.222 0.068 0.325c0.045 0.103 0.111 0.197 0.195 0.275s0.181 0.142 0.289 0.185c0.108 0.043 0.225 0.065 0.342 0.065s0.233-0.022 0.342-0.065c0.108-0.043 0.207-0.106 0.289-0.185l3.44-3.279c0.499-0.475 0.78-1.12 0.78-1.792s-0.281-1.316-0.78-1.792z"></path>
</symbol>
<symbol id="icon-home" viewBox="0 0 32 32">
<path d="M1.778 32v-19.544l14.222-12.456 14.222 12.456v19.544h-10.667v-10.738h-7.111v10.738h-10.667z"></path>
</symbol>
<symbol id="icon-star" viewBox="0 0 32 32">
<path fill="#999" style="fill: var(--color11, #999)" d="M16 25.718l9.888 6.282-2.624-11.84 8.736-7.966-11.504-1.027-4.496-11.166-4.496 11.166-11.504 1.027 8.736 7.966-2.624 11.84 9.888-6.282z"></path>
</symbol>
<symbol id="icon-password_visible" viewBox="0 0 32 32">
<path d="M20.671 16c0 2.779-2.129 5.032-4.756 5.032s-4.756-2.253-4.756-5.032 2.129-5.032 4.756-5.032c2.627 0 4.756 2.253 4.756 5.032z"></path>
<path fill="none" stroke="#212121" style="stroke: var(--color8, #212121)" stroke-linejoin="miter" stroke-linecap="butt" stroke-miterlimit="4" stroke-width="1.3333" d="M29.848 16.424l0.371-0.451-0.398-0.427c-1.45-1.555-3.004-3.125-5.158-4.293-2.164-1.174-4.888-1.919-8.663-1.919-3.787 0-6.638 0.848-8.857 2.066-2.214 1.215-3.766 2.781-4.977 4.161l-0.354 0.403 0.318 0.432c2.324 3.157 6.278 6.271 13.87 6.271 3.773 0 6.58-0.745 8.785-1.917 2.202-1.17 3.76-2.743 5.063-4.326z"></path>
</symbol>
<symbol id="icon-render_your_voice" viewBox="0 0 32 32">
<path d="M16 4c-2.213 0-4 1.827-4 4.093v7.813c0 2.267 1.787 4.093 4 4.093s4-1.827 4-4.093v-7.813c0-2.267-1.787-4.093-4-4.093zM24.667 16h-1.333c0 4.040-3.293 7.333-7.333 7.333s-7.333-3.293-7.333-7.333h-1.333c0 4.32 3.187 7.907 7.333 8.547v3.453h2.667v-3.453c4.147-0.64 7.333-4.227 7.333-8.547z"></path>
</symbol>
</defs>
</svg>
